<svg width="14" height="14" viewBox="0 0 14 14" fill="none" xmlns="http://www.w3.org/2000/svg">
<path d="M2.91689 8.75V9.91667C2.91689 10.5317 3.39282 11.0356 3.99649 11.0801L4.08356 11.0833H5.83356V12.25H4.08356C2.7949 12.25 1.75023 11.2053 1.75023 9.91667V8.75H2.91689ZM10.5002 5.83334L13.0669 12.25H11.8098L11.1092 10.5H8.72339L8.02398 12.25H6.76748L9.33356 5.83334H10.5002ZM9.91689 7.51637L9.18948 9.33334H10.6431L9.91689 7.51637ZM4.66689 1.16667V2.33334H7.00023V6.41667H4.66689V8.16667H3.50023V6.41667H1.16689V2.33334H3.50023V1.16667H4.66689ZM9.91689 1.75C11.2055 1.75 12.2502 2.79467 12.2502 4.08334V5.25H11.0836V4.08334C11.0836 3.439 10.5612 2.91667 9.91689 2.91667H8.16689V1.75H9.91689ZM3.50023 3.5H2.33356V5.25H3.50023V3.5ZM5.83356 3.5H4.66689V5.25H5.83356V3.5Z" fill="#525252"/>
</svg>
